<svg width="82" height="66" viewBox="0 0 82 66" fill="none" xmlns="http://www.w3.org/2000/svg">
<path d="M76 9H66.5H58.5H51.5V3.503C51.5 1.571 49.929 0 47.997 0H34.002C32.071 0 30.5 1.571 30.5 3.503V9H23.5H15.5H6C2.967 9 0.5 11.468 0.5 14.5V60.501C0.5 63.533 2.967 66 6 66H15.5H23.5H58.5H66.5H76C79.032 66 81.5 63.533 81.5 60.501V14.5C81.5 11.468 79.032 9 76 9ZM33.5 3.503C33.5 3.23 33.73 3 34.002 3H47.997C48.269 3 48.5 3.23 48.5 3.503V9H33.5V3.503ZM15.5 42.389C15.175 42.463 14.84 42.5 14.5 42.5C12.019 42.5 10 40.481 10 38C10 35.519 12.019 33.5 14.5 33.5C14.84 33.5 15.175 33.537 15.5 33.611V42.389ZM6 63C4.622 63 3.5 61.879 3.5 60.501V14.5C3.5 13.121 4.622 12 6 12H15.5V30.573C15.17 30.53 14.838 30.5 14.5 30.5C10.365 30.5 7 33.864 7 38C7 42.136 10.365 45.5 14.5 45.5C14.838 45.5 15.17 45.47 15.5 45.427V63H6ZM18.5 63V44.417V31.583V12H20.5V63H18.5ZM23.5 63V12H58.5V63H23.5ZM61.5 63V12H63.5V18.695V30.084V63H61.5ZM66.5 22.605L72.393 24.183L71.099 29.013L66.5 27.781V22.605ZM78.5 60.501C78.5 61.879 77.379 63 76 63H66.5V30.888L73.22 32.688L76.067 22.063L66.5 19.499V12H76C77.379 12 78.5 13.121 78.5 14.5V60.501Z" fill="#0D6EFD"/>
<path d="M55.429 32.121C54.96 31.309 54.206 30.73 53.306 30.489L44.613 28.16C44.318 28.08 44.014 28.04 43.71 28.04C42.128 28.04 40.736 29.106 40.326 30.635L37.222 42.226C36.98 43.127 37.105 44.07 37.573 44.881C38.042 45.692 38.796 46.271 39.697 46.513L48.389 48.841C48.684 48.921 48.988 48.961 49.292 48.961C50.876 48.961 52.267 47.894 52.676 46.367L55.782 34.775C56.022 33.874 55.896 32.932 55.429 32.121ZM52.883 33.999L49.777 45.591C49.699 45.887 49.404 46.009 49.165 45.944L40.473 43.616C40.301 43.569 40.21 43.449 40.171 43.381C40.132 43.314 40.073 43.175 40.119 43.003L43.223 31.412C43.288 31.169 43.517 31.041 43.709 31.041C43.751 31.041 43.793 31.047 43.835 31.059L52.529 33.389C52.701 33.435 52.792 33.555 52.831 33.622C52.87 33.689 52.929 33.828 52.883 33.999ZM36.725 51.126C35.51 51.126 34.17 51.314 32.85 51.668C30.93 52.183 29.192 53.011 27.957 53.998C25.838 55.692 25.878 57.272 26.09 58.063C26.549 59.775 28.438 60.755 31.271 60.755C32.486 60.755 33.825 60.568 35.144 60.214C39.074 59.159 42.657 56.623 41.903 53.818C41.444 52.107 39.557 51.126 36.725 51.126ZM34.367 57.318C33.298 57.604 32.227 57.756 31.271 57.756C29.669 57.756 29.047 57.348 28.994 57.334C29.039 56.888 30.484 55.407 33.628 54.563C34.697 54.276 35.769 54.125 36.725 54.125C38.327 54.125 38.948 54.532 39 54.546C38.955 54.993 37.511 56.474 34.367 57.318ZM39.063 28.255L35.521 15.748L24.937 18.746L28.48 31.253L39.063 28.255ZM33.452 19.451L35.36 26.186L30.549 27.549L28.641 20.814L33.452 19.451Z" fill="#0D6EFD"/>
</svg>
